<svg width="40" height="40" viewBox="0 0 40 40" fill="none" xmlns="http://www.w3.org/2000/svg">
<path fill-rule="evenodd" clip-rule="evenodd" d="M21.2671 37.8852C20.5844 37.8852 19.6401 38.0087 19.4035 37.703L4.81239 18.842C4.57525 18.5353 4.79504 18.0865 5.18306 18.0865L35.8582 18.0867C36.2461 18.0867 36.4659 18.5354 36.2288 18.8422L21.6377 37.7031C21.5489 37.8179 21.4118 37.8852 21.2671 37.8852ZM20.0038 36.948H21.037L34.9032 19.0239H6.13755L20.0038 36.948Z" fill="black"/>
<path fill-rule="evenodd" clip-rule="evenodd" d="M20.6775 37.8852C20.4019 37.8852 19.9704 37.9348 19.9004 37.4896L16.921 18.6287C16.8759 18.3446 17.0965 18.0873 17.3839 18.0873H23.6566C23.944 18.0873 24.1644 18.3446 24.1195 18.6287L21.1405 37.4896C21.1044 37.7174 20.9081 37.8852 20.6775 37.8852ZM17.9321 19.0239L20.5204 35.4094L23.1084 19.0239H17.9321Z" fill="black"/>
<path fill-rule="evenodd" clip-rule="evenodd" d="M35.8576 19.0239H5.18276C4.80342 19.0239 4.58094 18.5928 4.80074 18.2837L10.1069 10.8224C10.1947 10.6989 10.337 10.6256 10.4886 10.6256H30.5519C30.7035 10.6256 30.8457 10.6992 30.9338 10.8224L36.2397 18.2843C36.4593 18.5931 36.2368 19.0239 35.8576 19.0239ZM6.09049 18.0872H34.9494L30.31 11.5623H10.7299L6.09049 18.0872Z" fill="black"/>
<path fill-rule="evenodd" clip-rule="evenodd" d="M20.9777 37.8852C20.3518 37.8852 19.778 38.0042 19.6224 37.5768L10.0483 11.2541C9.8373 10.674 10.7181 10.3548 10.9287 10.9339L20.3906 36.948L20.6495 36.948L30.1117 10.934C30.323 10.3535 31.2031 10.675 30.9924 11.2542L21.4179 37.5769C21.3506 37.762 21.1745 37.8852 20.9777 37.8852Z" fill="black"/>
<path fill-rule="evenodd" clip-rule="evenodd" d="M13.2281 19.0244C12.8784 19.0244 12.6455 18.6471 12.817 18.3321C13.4676 17.1352 19.5112 11.4033 20.1983 10.7536C20.3841 10.5778 20.6765 10.5837 20.8555 10.7666L28.1471 18.2283C28.5781 18.6694 27.9085 19.3241 27.4769 18.8832L20.5076 11.7513C17.856 14.2704 14.0613 18.0056 13.6402 18.7795C13.5554 18.9359 13.3943 19.0244 13.2281 19.0244Z" fill="black"/>
<path fill-rule="evenodd" clip-rule="evenodd" d="M3.7623 14.6005C3.55801 14.6005 3.37706 14.4681 3.3156 14.2732L2.60122 12.0108L0.339308 11.2964C-0.0951175 11.1593 -0.0951175 10.5402 0.339308 10.403L2.60122 9.68865L3.3156 7.42665C3.45272 6.99222 4.07198 6.99222 4.209 7.42665L4.9232 9.68865L7.18548 10.403C7.61991 10.5402 7.61991 11.1593 7.18548 11.2964L4.92357 12.0108L4.20918 14.2732C4.14745 14.4681 3.9666 14.6005 3.7623 14.6005ZM2.03576 10.8497C3.59519 11.3422 3.26965 11.0166 3.76193 12.576C4.2544 11.0165 3.92886 11.3421 5.48819 10.8497C3.92886 10.3574 4.2544 10.683 3.76193 9.12386C3.26956 10.683 3.59501 10.3574 2.03576 10.8497Z" fill="black"/>
<path fill-rule="evenodd" clip-rule="evenodd" d="M8.55503 9.61587C8.35073 9.61587 8.16978 9.48346 8.10833 9.28857L7.39422 7.02657L5.13222 6.31181C4.69779 6.1747 4.69779 5.55554 5.13222 5.41842L7.39422 4.70403L8.10833 2.44203C8.24545 2.0076 8.8647 2.0076 9.00172 2.44203L9.7162 4.70403L11.9781 5.41842C12.4125 5.55554 12.4125 6.1747 11.9781 6.31181L9.7162 7.0262L9.00172 9.2882C8.94027 9.48309 8.75969 9.61587 8.55503 9.61587ZM6.82886 5.86513C8.3882 6.35741 8.06256 6.03187 8.55503 7.59102C9.04749 6.03187 8.72204 6.35741 10.2813 5.86513C8.72195 5.37276 9.04749 5.69839 8.55503 4.13924C8.06256 5.69839 8.3881 5.37276 6.82886 5.86513Z" fill="black"/>
<path fill-rule="evenodd" clip-rule="evenodd" d="M31.4446 35.327C31.2402 35.327 31.0593 35.1942 30.9978 34.9994L30.2837 32.7374L28.0217 32.023C27.5867 31.8858 27.5871 31.2668 28.0217 31.1296L30.2837 30.4155L30.9978 28.1535C31.1349 27.7188 31.754 27.7186 31.8913 28.1535L32.6056 30.4155L34.8676 31.1296C35.3023 31.2667 35.3025 31.8858 34.8676 32.023L32.6056 32.7374L31.8913 34.9994C31.8293 35.1946 31.6488 35.327 31.4446 35.327ZM29.7179 31.5763C31.2772 32.069 30.9518 31.7437 31.4442 33.3027C31.9368 31.7435 31.6115 32.069 33.1706 31.5763C31.6114 31.084 31.9367 31.4091 31.4442 29.85C30.9518 31.4093 31.2771 31.084 29.7179 31.5763Z" fill="black"/>
<path fill-rule="evenodd" clip-rule="evenodd" d="M36.2378 30.3423C36.0334 30.3423 35.8526 30.2099 35.791 30.0148L35.0767 27.7528L32.8147 27.0387C32.38 26.9015 32.3799 26.2825 32.8147 26.1453L35.0767 25.4309L35.791 23.1689C35.9283 22.7338 36.5473 22.7344 36.6845 23.1689L37.3986 25.4309L39.6606 26.1453C40.0956 26.2825 40.0952 26.9014 39.6606 27.0387L37.3986 27.7528L36.6845 30.0148C36.6229 30.2096 36.442 30.3423 36.2378 30.3423ZM34.5109 26.592C36.0702 27.0842 35.7448 26.7592 36.2375 28.3181C36.7297 26.7589 36.4045 27.0842 37.9636 26.592C36.4044 26.0992 36.7297 26.4246 36.2375 24.8654C35.7447 26.4247 36.0701 26.0992 34.5109 26.592Z" fill="black"/>
<path fill-rule="evenodd" clip-rule="evenodd" d="M3.76194 12.5759C4.2544 11.0164 3.92886 11.342 5.4882 10.8497C3.92886 10.3573 4.2544 10.6829 3.76194 9.12378C3.26956 10.6829 3.59501 10.3573 2.03577 10.8497C3.5952 11.3421 3.26966 11.0165 3.76194 12.5759Z" fill="#FDE383"/>
<path fill-rule="evenodd" clip-rule="evenodd" d="M6.82886 5.86505C8.3882 6.35733 8.06256 6.03179 8.55503 7.59095C9.04749 6.03179 8.72204 6.35733 10.2813 5.86505C8.72195 5.37268 9.04749 5.69831 8.55503 4.13916C8.06256 5.69831 8.3881 5.37268 6.82886 5.86505Z" fill="#FDE383"/>
<path fill-rule="evenodd" clip-rule="evenodd" d="M36.2373 24.8654C35.7446 26.4246 36.07 26.0992 34.5108 26.5919C36.0701 27.0842 35.7447 26.7591 36.2373 28.3181C36.7296 26.7588 36.4044 27.0842 37.9635 26.5919C36.4043 26.0992 36.7296 26.4245 36.2373 24.8654Z" fill="#FDE383"/>
<path fill-rule="evenodd" clip-rule="evenodd" d="M33.1708 31.5762C31.6115 31.084 31.9369 31.409 31.4443 29.85C30.952 31.4092 31.2772 31.084 29.7181 31.5762C31.2773 32.069 30.952 31.7436 31.4443 33.3027C31.937 31.7434 31.6116 32.069 33.1708 31.5762Z" fill="#FDE383"/>
<path fill-rule="evenodd" clip-rule="evenodd" d="M28.5071 18.0872H34.9497L30.6875 12.0928L28.5071 18.0872Z" fill="#FDC25F"/>
<path fill-rule="evenodd" clip-rule="evenodd" d="M27.6454 17.7148L29.8834 11.5623H21.6331L27.6454 17.7148Z" fill="#FDD776"/>
<path fill-rule="evenodd" clip-rule="evenodd" d="M26.6992 18.0871L20.5077 11.7512C18.3392 13.8113 15.4064 16.6846 14.1788 18.0871L17.384 18.0873H23.6567L26.6992 18.0871Z" fill="#FDE383"/>
<path fill-rule="evenodd" clip-rule="evenodd" d="M13.3578 17.6125C14.6663 16.0774 17.7916 13.051 19.3484 11.5623H11.1573L13.3578 17.6125Z" fill="#FDD776"/>
<path fill-rule="evenodd" clip-rule="evenodd" d="M12.5337 18.0872L10.3532 12.0924L6.09064 18.0872H12.5337Z" fill="#FDC25F"/>
<path fill-rule="evenodd" clip-rule="evenodd" d="M12.8743 19.0239H6.13751L18.8523 35.4597L12.8743 19.0239Z" fill="#FDE383"/>
<path fill-rule="evenodd" clip-rule="evenodd" d="M13.8713 19.0239L19.3726 34.1493L16.9834 19.0239H13.8713Z" fill="#FDD776"/>
<path fill-rule="evenodd" clip-rule="evenodd" d="M17.9321 19.0239L20.5204 35.4095L23.1084 19.0239H17.9321Z" fill="#FDC25F"/>
<path fill-rule="evenodd" clip-rule="evenodd" d="M24.0571 19.0239L21.6685 34.1469L27.1691 19.0239H24.0571Z" fill="#FDD776"/>
<path fill-rule="evenodd" clip-rule="evenodd" d="M28.1664 19.0239L22.1877 35.4606L34.9033 19.0239H28.1664Z" fill="#FDE383"/>
</svg>
