<svg width="40" height="40" viewBox="0 0 40 40" fill="none" xmlns="http://www.w3.org/2000/svg">
<path d="M30 36.25L28.1269 30H28.1256L36.875 16.25H36.8775L38.75 21.25L30.0019 36.25H30Z" fill="#F6B940"/>
<path d="M36.875 16.25L28.1256 30H19.3756L28.125 16.25H36.8775H36.875Z" fill="#F4A93C"/>
<path d="M30 36.25L28.1269 30H19.375L17.5 36.25H30Z" fill="#FAD85D"/>
<path d="M13.75 36.25L11.8769 30H11.8756L20.625 16.25H20.6275L22.5 21.25L13.7519 36.25H13.75Z" fill="#F4A93C"/>
<path d="M20.625 16.25L11.8756 30H3.12561L11.875 16.25H20.6275H20.625Z" fill="#F6B940"/>
<path d="M13.75 36.25L11.8769 30H3.125L1.25 36.25H13.75Z" fill="#FAD85D"/>
<path d="M22.5 30L20.6269 23.75H20.6256L29.375 10H29.3775L31.25 15L22.5019 30H22.5Z" fill="#F6B940"/>
<path d="M29.375 10L20.6256 23.75H11.8756L20.625 10H29.3775H29.375Z" fill="#FAD85D"/>
<path d="M22.5 30L20.6269 23.75H11.875L10 30H22.5Z" fill="#FCE797"/>
<path d="M8.75 16.875C7.75544 16.875 6.80161 17.2701 6.09835 17.9733C5.39509 18.6766 5 19.6304 5 20.625C5 19.6304 4.60491 18.6766 3.90165 17.9733C3.19839 17.2701 2.24456 16.875 1.25 16.875C2.24456 16.875 3.19839 16.4799 3.90165 15.7767C4.60491 15.0734 5 14.1196 5 13.125C5 14.1196 5.39509 15.0734 6.09835 15.7767C6.80161 16.4799 7.75544 16.875 8.75 16.875Z" fill="#FCE797"/>
<path d="M38.75 7.5C37.7554 7.5 36.8016 7.89509 36.0983 8.59835C35.3951 9.30161 35 10.2554 35 11.25C35 10.2554 34.6049 9.30161 33.9017 8.59835C33.1984 7.89509 32.2446 7.5 31.25 7.5C32.2446 7.5 33.1984 7.10491 33.9017 6.40165C34.6049 5.69839 35 4.74456 35 3.75C35 4.74456 35.3951 5.69839 36.0983 6.40165C36.8016 7.10491 37.7554 7.5 38.75 7.5Z" fill="#FCE797"/>
<path d="M18.125 9.375C17.1304 9.375 16.1766 9.77009 15.4733 10.4733C14.7701 11.1766 14.375 12.1304 14.375 13.125C14.375 12.1304 13.9799 11.1766 13.2767 10.4733C12.5734 9.77009 11.6196 9.375 10.625 9.375C11.6196 9.375 12.5734 8.97991 13.2767 8.27665C13.9799 7.57339 14.375 6.61956 14.375 5.625C14.375 6.61956 14.7701 7.57339 15.4733 8.27665C16.1766 8.97991 17.1304 9.375 18.125 9.375Z" fill="#FCE797"/>
<path d="M37.4631 16.0306C37.4185 15.9115 37.3385 15.8089 37.234 15.7364C37.1295 15.6639 37.0053 15.625 36.8781 15.625H31.6094L31.79 15.3125C31.8368 15.2324 31.8651 15.1429 31.873 15.0505C31.8809 14.958 31.8681 14.865 31.8356 14.7781L29.9606 9.77813C29.9157 9.65988 29.836 9.55804 29.732 9.48607C29.628 9.41409 29.5046 9.37536 29.3781 9.375H20.625C20.5198 9.37496 20.4163 9.40145 20.3241 9.45204C20.2319 9.50262 20.154 9.57565 20.0975 9.66438L16.3044 15.625H11.875C11.7698 15.625 11.6663 15.6515 11.5741 15.702C11.4819 15.7526 11.404 15.8257 11.3475 15.9144L2.59748 29.6644C2.56671 29.713 2.54274 29.7655 2.52623 29.8206L0.651232 36.0706C0.623274 36.1639 0.617516 36.2625 0.634419 36.3584C0.651323 36.4544 0.690418 36.545 0.748587 36.6232C0.806755 36.7013 0.882385 36.7648 0.96944 36.8085C1.0565 36.8522 1.15257 36.875 1.24998 36.875H13.75C13.847 36.875 13.9427 36.8524 14.0295 36.809C14.1163 36.7656 14.1918 36.7026 14.25 36.625C14.2607 36.6037 14.2701 36.5818 14.2781 36.5594L14.2906 36.5669L17.7562 30.625H18.535L16.9012 36.0706C16.8733 36.1639 16.8675 36.2625 16.8844 36.3584C16.9013 36.4544 16.9404 36.545 16.9986 36.6232C17.0568 36.7013 17.1324 36.7648 17.2194 36.8085C17.3065 36.8522 17.4026 36.875 17.5 36.875H30C30.097 36.875 30.1927 36.8524 30.2795 36.809C30.3663 36.7656 30.4418 36.7026 30.5 36.625C30.5107 36.6037 30.5201 36.5818 30.5281 36.5594L30.5406 36.5669L39.2906 21.5669C39.3374 21.4868 39.3658 21.3973 39.3736 21.3048C39.3815 21.2124 39.3688 21.1194 39.3362 21.0325L37.4631 16.0306ZM35.7369 16.875L27.7831 29.375H23.59L30.8806 16.875H35.7369ZM10.8406 29.375L12.3406 24.375H20.1619L21.6619 29.375H10.8406ZM30.5625 14.9412L22.6875 28.4437L21.3081 23.8444L29.2312 11.3906L30.5625 14.9412ZM20.9681 10.625H28.2369L20.2837 23.125H13.0144L20.9681 10.625ZM12.2181 16.875H15.5087L11.3475 23.4144C11.3167 23.463 11.2927 23.5155 11.2762 23.5706L9.53498 29.375H4.26436L12.2181 16.875ZM2.09061 35.625L3.59061 30.625H11.4119L12.9119 35.625H2.09061ZM13.9375 34.6931L12.7169 30.625H16.3087L13.9375 34.6931ZM18.34 35.625L19.84 30.625H27.6619L29.1619 35.625H18.34ZM30.1875 34.6931L28.8075 30.0938L36.7312 17.64L38.0625 21.1912L30.1875 34.6931Z" fill="black"/>
<path d="M1.25 17.5C2.0785 17.501 2.87278 17.8306 3.45861 18.4164C4.04445 19.0022 4.37401 19.7965 4.375 20.625C4.375 20.7908 4.44085 20.9497 4.55806 21.0669C4.67527 21.1842 4.83424 21.25 5 21.25C5.16576 21.25 5.32473 21.1842 5.44194 21.0669C5.55915 20.9497 5.625 20.7908 5.625 20.625C5.62599 19.7965 5.95555 19.0022 6.54139 18.4164C7.12722 17.8306 7.9215 17.501 8.75 17.5C8.91576 17.5 9.07473 17.4342 9.19194 17.3169C9.30915 17.1997 9.375 17.0408 9.375 16.875C9.375 16.7092 9.30915 16.5503 9.19194 16.4331C9.07473 16.3158 8.91576 16.25 8.75 16.25C7.9215 16.249 7.12722 15.9194 6.54139 15.3336C5.95555 14.7478 5.62599 13.9535 5.625 13.125C5.625 12.9592 5.55915 12.8003 5.44194 12.6831C5.32473 12.5658 5.16576 12.5 5 12.5C4.83424 12.5 4.67527 12.5658 4.55806 12.6831C4.44085 12.8003 4.375 12.9592 4.375 13.125C4.37401 13.9535 4.04445 14.7478 3.45861 15.3336C2.87278 15.9194 2.0785 16.249 1.25 16.25C1.08424 16.25 0.925268 16.3158 0.808058 16.4331C0.690848 16.5503 0.625 16.7092 0.625 16.875C0.625 17.0408 0.690848 17.1997 0.808058 17.3169C0.925268 17.4342 1.08424 17.5 1.25 17.5ZM5 15.375C5.3707 15.9894 5.88556 16.5043 6.5 16.875C5.88556 17.2457 5.3707 17.7606 5 18.375C4.6293 17.7606 4.11444 17.2457 3.5 16.875C4.11444 16.5043 4.6293 15.9894 5 15.375Z" fill="black"/>
<path d="M31.25 8.125C32.0785 8.12599 32.8728 8.45555 33.4586 9.04139C34.0444 9.62722 34.374 10.4215 34.375 11.25C34.375 11.4158 34.4408 11.5747 34.5581 11.6919C34.6753 11.8092 34.8342 11.875 35 11.875C35.1658 11.875 35.3247 11.8092 35.4419 11.6919C35.5592 11.5747 35.625 11.4158 35.625 11.25C35.626 10.4215 35.9556 9.62722 36.5414 9.04139C37.1272 8.45555 37.9215 8.12599 38.75 8.125C38.9158 8.125 39.0747 8.05915 39.1919 7.94194C39.3092 7.82473 39.375 7.66576 39.375 7.5C39.375 7.33424 39.3092 7.17527 39.1919 7.05806C39.0747 6.94085 38.9158 6.875 38.75 6.875C37.9215 6.87401 37.1272 6.54445 36.5414 5.95861C35.9556 5.37278 35.626 4.5785 35.625 3.75C35.625 3.58424 35.5592 3.42527 35.4419 3.30806C35.3247 3.19085 35.1658 3.125 35 3.125C34.8342 3.125 34.6753 3.19085 34.5581 3.30806C34.4408 3.42527 34.375 3.58424 34.375 3.75C34.374 4.5785 34.0444 5.37278 33.4586 5.95861C32.8728 6.54445 32.0785 6.87401 31.25 6.875C31.0842 6.875 30.9253 6.94085 30.8081 7.05806C30.6908 7.17527 30.625 7.33424 30.625 7.5C30.625 7.66576 30.6908 7.82473 30.8081 7.94194C30.9253 8.05915 31.0842 8.125 31.25 8.125ZM35 6C35.3707 6.61444 35.8856 7.1293 36.5 7.5C35.8856 7.8707 35.3707 8.38556 35 9C34.6293 8.38556 34.1144 7.8707 33.5 7.5C34.1144 7.1293 34.6293 6.61444 35 6Z" fill="black"/>
<path d="M10.625 10C11.4535 10.001 12.2478 10.3306 12.8336 10.9164C13.4194 11.5022 13.749 12.2965 13.75 13.125C13.75 13.2908 13.8158 13.4497 13.9331 13.5669C14.0503 13.6842 14.2092 13.75 14.375 13.75C14.5408 13.75 14.6997 13.6842 14.8169 13.5669C14.9342 13.4497 15 13.2908 15 13.125C15.001 12.2965 15.3306 11.5022 15.9164 10.9164C16.5022 10.3306 17.2965 10.001 18.125 10C18.2908 10 18.4497 9.93415 18.5669 9.81694C18.6842 9.69973 18.75 9.54076 18.75 9.375C18.75 9.20924 18.6842 9.05027 18.5669 8.93306C18.4497 8.81585 18.2908 8.75 18.125 8.75C17.2965 8.74901 16.5022 8.41945 15.9164 7.83361C15.3306 7.24778 15.001 6.4535 15 5.625C15 5.45924 14.9342 5.30027 14.8169 5.18306C14.6997 5.06585 14.5408 5 14.375 5C14.2092 5 14.0503 5.06585 13.9331 5.18306C13.8158 5.30027 13.75 5.45924 13.75 5.625C13.749 6.4535 13.4194 7.24778 12.8336 7.83361C12.2478 8.41945 11.4535 8.74901 10.625 8.75C10.4592 8.75 10.3003 8.81585 10.1831 8.93306C10.0658 9.05027 10 9.20924 10 9.375C10 9.54076 10.0658 9.69973 10.1831 9.81694C10.3003 9.93415 10.4592 10 10.625 10ZM14.375 7.875C14.7457 8.48944 15.2606 9.0043 15.875 9.375C15.2606 9.7457 14.7457 10.2606 14.375 10.875C14.0043 10.2606 13.4894 9.7457 12.875 9.375C13.4894 9.0043 14.0043 8.48944 14.375 7.875Z" fill="black"/>
</svg>
