<svg width="40" height="40" viewBox="0 0 40 40" fill="none" xmlns="http://www.w3.org/2000/svg">
<path d="M13.1838 21.3025H18.6913V37.8125H13.1838V21.3025Z" fill="#E53A35"/>
<path d="M21.3088 15.0525H26.8163V37.8125H21.3088V15.0525Z" fill="#7CB342"/>
<path d="M29.4338 10.0525H34.9413V37.8125H29.4338V10.0525Z" fill="#3D82C4"/>
<path d="M5.05878 27.5525H10.5663V37.8125H5.05878V27.5525Z" fill="#FCB316"/>
<path d="M38.125 37.1875H1.875C1.53 37.1875 1.25 37.4675 1.25 37.8125C1.25 38.1575 1.53 38.4375 1.875 38.4375H38.125C38.47 38.4375 38.75 38.1575 38.75 37.8125C38.75 37.4675 38.47 37.1875 38.125 37.1875Z" fill="#37474F"/>
<path d="M14.5369 8.56L8.20562 1.5625L1.875 8.56H5.45625V19.0625H10.955V8.56H14.5369Z" fill="#F9A01B"/>
</svg>
