<svg width="40" height="40" viewBox="0 0 40 40" fill="none" xmlns="http://www.w3.org/2000/svg">
<g clip-path="url(#clip0_43_133)">
<mask id="mask0_43_133" style="mask-type:luminance" maskUnits="userSpaceOnUse" x="0" y="0" width="40" height="40">
<path d="M0 3.8147e-06H40V40H0V3.8147e-06Z" fill="white"/>
</mask>
<g mask="url(#mask0_43_133)">
<path d="M34.8963 34.5312H5.10367C3.77359 34.5312 2.69531 33.453 2.69531 32.1229V13.0334C2.69531 11.7033 3.77359 10.625 5.10367 10.625H34.8963C36.2264 10.625 37.3047 11.7033 37.3047 13.0334V32.1229C37.3047 33.453 36.2264 34.5312 34.8963 34.5312Z" fill="#918291"/>
<path d="M34.8964 10.625H32.5526C33.8827 10.625 34.961 11.7033 34.961 13.0334V32.1229C34.961 33.453 33.8827 34.5312 32.5526 34.5312H34.8964C36.2264 34.5312 37.3047 33.453 37.3047 32.1229V13.0334C37.3047 11.7033 36.2264 10.625 34.8964 10.625Z" fill="#7A6D79"/>
<path d="M5.03906 31.2575V13.8988C5.03906 13.3851 5.45547 12.9688 5.96906 12.9688H34.0309C34.5445 12.9688 34.9609 13.3851 34.9609 13.8988V31.2575C34.9609 31.7711 34.5445 32.1875 34.0309 32.1875H5.96906C5.45547 32.1875 5.03906 31.7711 5.03906 31.2575Z" fill="#C8EFFE"/>
<path d="M37.5249 38.2812H2.47508C1.43172 38.2812 0.585938 37.4355 0.585938 36.3921V35C0.585938 34.7412 0.795859 34.5312 1.05469 34.5312H38.9453C39.2042 34.5312 39.4141 34.7412 39.4141 35V36.3921C39.4141 37.4355 38.5683 38.2812 37.5249 38.2812Z" fill="#CBE5E8"/>
<path d="M38.9453 34.5312H36.6015C36.8604 34.5312 37.0703 34.7412 37.0703 35V36.3921C37.0703 37.4355 36.2245 38.2812 35.1812 38.2812H37.5249C38.5683 38.2812 39.414 37.4355 39.414 36.3921V35C39.414 34.7412 39.2042 34.5312 38.9453 34.5312Z" fill="#A8D3D8"/>
<path d="M23.3809 36.4062H16.6191C16.4594 36.4062 16.3171 36.3049 16.2648 36.154L15.7031 34.5312H24.2969L23.7352 36.154C23.6829 36.3049 23.5406 36.4062 23.3809 36.4062Z" fill="#7CA1B1"/>
<path d="M29.6197 10.37C29.1621 9.91241 28.4201 9.91241 27.9625 10.37L20.7731 17.5593L18.2875 15.0737C17.8298 14.616 17.0878 14.616 16.6302 15.0737L7.70066 24.0032C7.24301 24.4609 7.24301 25.2028 7.70066 25.6605C7.92949 25.8893 8.22941 26.0037 8.52926 26.0037C8.82918 26.0037 9.1291 25.8893 9.35793 25.6605L17.4588 17.5596L19.9445 20.0452C20.402 20.5029 21.144 20.5029 21.6018 20.0452L29.6197 12.0273C30.0774 11.5696 30.0774 10.8276 29.6197 10.37Z" fill="#FFC344"/>
<path d="M32.1416 7.77986C31.8483 7.48673 31.4344 7.3758 31.0337 7.48306L26.5703 8.679C26.1698 8.78634 25.8668 9.08947 25.7594 9.48994C25.6521 9.89048 25.763 10.3045 26.0562 10.5978L29.3236 13.8652C29.5432 14.0848 29.8306 14.2021 30.1294 14.2021C30.6429 14.2054 31.1157 13.8522 31.2423 13.351L32.4383 8.88775C32.5457 8.4872 32.4347 8.07306 32.1416 7.77986Z" fill="#FFD15B"/>
<path d="M20.5839 4.60662C20.1173 4.18186 19.3904 4.22287 18.9442 4.66904L7.95085 15.6623C7.49319 16.12 7.49319 16.8619 7.95085 17.3196C8.4085 17.7772 9.15053 17.7772 9.60819 17.3197L20.6248 6.30295C21.0958 5.83209 21.0821 5.06014 20.5839 4.60662Z" fill="#FFC344"/>
<path d="M23.1466 2.05574C22.8533 1.76261 22.4395 1.65168 22.0387 1.75894L17.5754 2.95488C17.1749 3.06222 16.8719 3.36535 16.7645 3.76582C16.6572 4.16636 16.7681 4.58043 17.0612 4.87363L20.3287 8.14105C20.5483 8.36066 20.8357 8.478 21.1344 8.478C21.6479 8.48129 22.1208 8.12808 22.2474 7.62691L23.4434 3.16363C23.5508 2.76308 23.4397 2.34894 23.1466 2.05574Z" fill="#FFD15B"/>
<path d="M22.4219 29.2188H17.5781C16.8446 29.2188 16.25 28.6241 16.25 27.8906C16.25 27.1571 16.8446 26.5625 17.5781 26.5625H22.4219C23.1554 26.5625 23.75 27.1571 23.75 27.8906C23.75 28.6241 23.1554 29.2188 22.4219 29.2188Z" fill="#FE646F"/>
<path d="M8.98041 10.625H12.8024" stroke="black" stroke-width="1.17187" stroke-miterlimit="10" stroke-linecap="round" stroke-linejoin="round"/>
<path d="M37.3047 29.9759V32.1227C37.3047 33.4531 36.2266 34.5312 34.8961 34.5312H5.1039C3.77344 34.5312 2.69531 33.4531 2.69531 32.1227V13.0336C2.69531 11.703 3.77344 10.625 5.1039 10.625H6.27203" stroke="black" stroke-width="1.17187" stroke-miterlimit="10" stroke-linecap="round" stroke-linejoin="round"/>
<path d="M32.1519 10.625H34.8961C36.2266 10.625 37.3047 11.7031 37.3047 13.0336V27.1875" stroke="black" stroke-width="1.17187" stroke-miterlimit="10" stroke-linecap="round" stroke-linejoin="round"/>
<path d="M25.9546 10.625H16.4543" stroke="black" stroke-width="1.17187" stroke-miterlimit="10" stroke-linecap="round" stroke-linejoin="round"/>
<path d="M31.5305 12.9688H34.0313C34.5446 12.9688 34.961 13.3852 34.961 13.8984V31.2578C34.961 31.7711 34.5446 32.1875 34.0313 32.1875H5.96881C5.45553 32.1875 5.03912 31.7711 5.03912 31.2578V13.8984C5.03912 13.3852 5.45553 12.9688 5.96881 12.9688H10.4586" stroke="black" stroke-width="1.17187" stroke-miterlimit="10" stroke-linecap="round" stroke-linejoin="round"/>
<path d="M25.2302 12.9688H14.1323" stroke="black" stroke-width="1.17187" stroke-miterlimit="10" stroke-linecap="round" stroke-linejoin="round"/>
<path d="M37.5249 38.2812H2.47508C1.43172 38.2812 0.585938 37.4355 0.585938 36.3921V35C0.585938 34.7412 0.795859 34.5312 1.05469 34.5312H38.9453C39.2042 34.5312 39.4141 34.7412 39.4141 35V36.3921C39.4141 37.4355 38.5683 38.2812 37.5249 38.2812Z" stroke="black" stroke-width="1.17187" stroke-miterlimit="10" stroke-linecap="round" stroke-linejoin="round"/>
<path d="M23.3809 36.4062H16.6191C16.4594 36.4062 16.3171 36.3049 16.2648 36.154L15.7031 34.5312H24.2969L23.7352 36.154C23.6829 36.3049 23.5406 36.4062 23.3809 36.4062Z" stroke="black" stroke-width="1.17187" stroke-miterlimit="10" stroke-linecap="round" stroke-linejoin="round"/>
<path d="M26.7928 11.5397L20.7731 17.5593L18.2874 15.0736C17.8299 14.6159 17.0878 14.6159 16.6302 15.0736L7.70073 24.0031C7.24307 24.4608 7.24307 25.2028 7.70073 25.6604C7.92948 25.8893 8.2294 26.0037 8.52932 26.0037C8.82924 26.0037 9.12909 25.8893 9.35799 25.6604L17.4588 17.5596L19.9445 20.0451C20.4021 20.5029 21.1441 20.5029 21.6017 20.0451L28.4573 13.1897" stroke="black" stroke-width="1.17187" stroke-miterlimit="10" stroke-linecap="round" stroke-linejoin="round"/>
<path d="M32.1416 7.77986C31.8483 7.48674 31.4344 7.3758 31.0337 7.48306L26.5703 8.679C26.1698 8.78634 25.8668 9.08947 25.7594 9.48994C25.6521 9.89049 25.763 10.3045 26.0562 10.5978L29.3236 13.8652C29.5432 14.0848 29.8306 14.2021 30.1294 14.2021C30.6429 14.2054 31.1157 13.8522 31.2423 13.351L32.4383 8.88775C32.5457 8.4872 32.4347 8.07306 32.1416 7.77986Z" stroke="black" stroke-width="1.17187" stroke-miterlimit="10" stroke-linecap="round" stroke-linejoin="round"/>
<path d="M17.8053 5.80795L7.95091 15.6623C7.49325 16.12 7.49325 16.8619 7.95091 17.3196C8.40856 17.7772 9.15052 17.7772 9.60817 17.3197L19.4408 7.48701" stroke="black" stroke-width="1.17187" stroke-miterlimit="10" stroke-linecap="round" stroke-linejoin="round"/>
<path d="M23.1466 2.05574C22.8533 1.76261 22.4395 1.65168 22.0387 1.75894L17.5754 2.95488C17.1749 3.06222 16.8719 3.36535 16.7645 3.76582C16.6572 4.16636 16.7681 4.58043 17.0612 4.87363L20.3287 8.14105C20.5483 8.36066 20.8357 8.478 21.1344 8.478C21.6479 8.48129 22.1208 8.12808 22.2474 7.62691L23.4434 3.16363C23.5508 2.76308 23.4397 2.34894 23.1466 2.05574Z" stroke="black" stroke-width="1.17187" stroke-miterlimit="10" stroke-linecap="round" stroke-linejoin="round"/>
<path d="M28.2719 19.4199H31.0596" stroke="black" stroke-width="1.17187" stroke-miterlimit="10" stroke-linecap="round" stroke-linejoin="round"/>
<path d="M25.4559 21.6797H31.0595" stroke="black" stroke-width="1.17187" stroke-miterlimit="10" stroke-linecap="round" stroke-linejoin="round"/>
<path d="M25.4559 23.9392H31.0595" stroke="black" stroke-width="1.17187" stroke-miterlimit="10" stroke-linecap="round" stroke-linejoin="round"/>
<path d="M22.4219 29.2188H17.5781C16.8446 29.2188 16.25 28.6241 16.25 27.8906C16.25 27.1571 16.8446 26.5625 17.5781 26.5625H22.4219C23.1554 26.5625 23.75 27.1571 23.75 27.8906C23.75 28.6241 23.1554 29.2188 22.4219 29.2188Z" stroke="black" stroke-width="1.17187" stroke-miterlimit="10" stroke-linecap="round" stroke-linejoin="round"/>
</g>
</g>
<defs>
<clipPath id="clip0_43_133">
<rect width="40" height="40" fill="white"/>
</clipPath>
</defs>
</svg>
