<svg width="40" height="40" viewBox="0 0 40 40" fill="none" xmlns="http://www.w3.org/2000/svg">
<g clip-path="url(#clip0_43_194)">
<path fill-rule="evenodd" clip-rule="evenodd" d="M20.0226 17.8118C19.2016 17.8117 18.399 17.5681 17.7164 17.1119C17.0338 16.6557 16.5018 16.0074 16.1877 15.2488C15.8736 14.4903 15.7914 13.6556 15.9517 12.8504C16.1119 12.0451 16.5073 11.3055 17.0879 10.725C17.6684 10.1445 18.4081 9.74915 19.2134 9.58901C20.0186 9.42887 20.8533 9.51111 21.6118 9.82532C22.3703 10.1395 23.0186 10.6716 23.4747 11.3543C23.9309 12.0369 24.1743 12.8395 24.1743 13.6605C24.173 14.7612 23.7352 15.8164 22.9568 16.5946C22.1785 17.3728 21.1233 17.8106 20.0226 17.8118Z" fill="#FFCD00"/>
<path fill-rule="evenodd" clip-rule="evenodd" d="M10.6228 28.0405H14.2906L19.1384 34.2465C19.2407 34.3775 19.3715 34.4834 19.5208 34.5562C19.6701 34.6291 19.8341 34.6669 20.0003 34.6669C20.1665 34.6669 20.3304 34.6291 20.4798 34.5562C20.6291 34.4834 20.7599 34.3775 20.8622 34.2465L25.7095 28.0405H29.3772L34.1778 37.6564H5.82275L10.6228 28.0405Z" fill="#FFCD00"/>
<path fill-rule="evenodd" clip-rule="evenodd" d="M14.2143 28.1967L19.0152 34.3426C19.1321 34.4923 19.2816 34.6133 19.4522 34.6966C19.6229 34.7798 19.8103 34.8231 20.0003 34.8231C20.1902 34.8231 20.3776 34.7798 20.5483 34.6966C20.719 34.6133 20.8684 34.4923 20.9853 34.3426L25.7856 28.1967H29.2806L33.9252 37.5H6.07541L10.7195 28.1969L14.2143 28.1967ZM12.1303 5.74439C7.60291 10.2718 8.75431 17.1467 12.2319 21.5981L20 31.5425L27.7684 21.5981C31.8881 16.324 31.9297 9.8047 27.8696 5.74439C25.7776 3.66636 22.9487 2.50009 20 2.50009C17.0513 2.50009 14.2223 3.66636 12.1303 5.74439ZM8.61924 26.8069L3.48182 37.0974C3.32898 37.4033 3.25686 37.7432 3.27231 38.0847C3.28777 38.4263 3.39028 38.7583 3.57012 39.0491C3.74996 39.3399 4.00115 39.5799 4.29984 39.7464C4.59853 39.9128 4.93481 40.0001 5.27674 40H34.7232C35.0651 39.9999 35.4013 39.9125 35.6999 39.746C35.9985 39.5795 36.2497 39.3395 36.4295 39.0488C36.6094 38.758 36.7119 38.4261 36.7276 38.0846C36.7432 37.7431 36.6713 37.4032 36.5187 37.0973L31.3813 26.807C31.2156 26.4727 30.9596 26.1915 30.6423 25.9953C30.325 25.7991 29.959 25.6957 29.586 25.6969H27.7391L29.7382 23.1374C32.003 20.2389 33.2962 16.7945 33.3804 13.4391C33.472 9.78908 32.1773 6.5172 29.6378 3.97744C27.0773 1.42988 23.6122 -0.000244141 20.0003 -0.000244141C16.3883 -0.000244141 12.9233 1.42988 10.3628 3.97744C4.80846 9.53127 6.10775 17.8203 10.2617 23.1374L12.2617 25.6969H10.4141C10.041 25.6956 9.67511 25.799 9.35783 25.9952C9.04056 26.1914 8.78465 26.4726 8.61916 26.807L8.61924 26.8069ZM16.0277 13.6606C16.0276 12.8704 16.2619 12.0979 16.7009 11.4408C17.1399 10.7838 17.7639 10.2717 18.4939 9.96925C19.224 9.66683 20.0273 9.5877 20.8023 9.74186C21.5773 9.89601 22.2892 10.2765 22.848 10.8353C23.4067 11.3941 23.7873 12.106 23.9414 12.881C24.0955 13.656 24.0164 14.4594 23.714 15.1894C23.4115 15.9194 22.8994 16.5434 22.2423 16.9824C21.5853 17.4214 20.8128 17.6556 20.0226 17.6556C18.9634 17.6544 17.948 17.2331 17.199 16.4841C16.4501 15.7352 16.0288 14.7197 16.0277 13.6606ZM26.5179 13.6606C26.5179 14.9451 26.1369 16.2009 25.4232 17.2689C24.7095 18.337 23.6951 19.1695 22.5083 19.661C21.3215 20.1526 20.0155 20.2812 18.7556 20.0306C17.4957 19.78 16.3385 19.1614 15.4301 18.253C14.5218 17.3447 13.9032 16.1874 13.6526 14.9275C13.4019 13.6676 13.5305 12.3617 14.0221 11.1749C14.5137 9.98807 15.3461 8.97367 16.4142 8.25997C17.4823 7.54626 18.738 7.1653 20.0226 7.16525C21.7447 7.16711 23.3957 7.85205 24.6134 9.06977C25.8312 10.2875 26.5161 11.9385 26.5179 13.6606V13.6606Z" fill="black"/>
</g>
<defs>
<clipPath id="clip0_43_194">
<rect width="40" height="40" fill="white"/>
</clipPath>
</defs>
</svg>
