<svg width="40" height="40" viewBox="0 0 40 40" fill="none" xmlns="http://www.w3.org/2000/svg">
<g clip-path="url(#clip0_43_104)">
<path d="M25.8594 29.2969V35.3125H14.1406V29.2969L20.1741 26.9531L25.8594 29.2969Z" fill="#515F66"/>
<path d="M20 27.0208V35.3125H25.8594V29.2969L20.174 26.9531L20 27.0208Z" fill="#3E454D"/>
<path d="M32.8906 12.8906C32.8906 17.5547 30.7812 20.2031 28.9063 22.5234C27.2655 24.5624 25.8594 26.3202 25.8594 29.2969H14.1406C14.1406 26.3202 12.7345 24.5624 11.0937 22.5234C9.21883 20.2031 7.10938 17.5547 7.10938 12.8906C7.10938 5.78898 12.8984 0 20 0C27.1016 0 32.8906 5.78898 32.8906 12.8906Z" fill="#FFDF40"/>
<path d="M25.8594 29.2969C25.8594 26.3202 27.2655 24.5624 28.9063 22.5234C30.7812 20.2031 32.8906 17.5547 32.8906 12.8906C32.8906 5.78898 27.1016 0 20 0V29.2969H25.8594Z" fill="#FFBE40"/>
<path d="M16.4844 37.6562H23.5156V40H16.4844V37.6562Z" fill="#FFDF40"/>
<path d="M0 11.7188H4.76562V14.0625H0V11.7188Z" fill="#FFDF40"/>
<path d="M35.2344 11.7188H40V14.0625H35.2344V11.7188Z" fill="#FFBE40"/>
<path d="M2.1601 21.838L6.21717 19.4956L7.38873 21.5247L3.33166 23.8672L2.1601 21.838Z" fill="#FFDF40"/>
<path d="M32.6098 4.26306L36.6669 1.92064L37.8384 3.94979L33.7814 6.29221L32.6098 4.26306Z" fill="#FFBE40"/>
<path d="M2.16138 3.94153L3.33294 1.91238L7.39001 4.2548L6.21845 6.28395L2.16138 3.94153Z" fill="#FFDF40"/>
<path d="M32.5961 21.502L33.7677 19.4728L37.8248 21.8152L36.6532 23.8444L32.5961 21.502Z" fill="#FFBE40"/>
<path d="M23.5156 10.5468C23.5156 11.7891 22.836 12.961 21.7578 13.5937C21.4062 13.8047 21.1719 14.1796 21.1719 14.6015V16.4062H18.8281V14.6014C18.8281 13.6171 19.2734 12.6562 20 11.9999C20.4738 11.5261 21.1719 11.3876 21.1719 10.5468C21.1719 9.89042 20.6563 9.37488 20 9.37488C19.3437 9.37488 18.8281 9.89042 18.8281 10.5468H16.4844C16.4844 8.60136 18.0546 7.03113 20 7.03113C21.9454 7.03113 23.5156 8.60144 23.5156 10.5468Z" fill="#515F66"/>
<path d="M18.8281 18.75H21.1719V21.0938H18.8281V18.75Z" fill="#515F66"/>
<path d="M20 18.75H21.1719V21.0938H20V18.75Z" fill="#3E454D"/>
<path d="M23.5156 10.5469C23.5156 11.7891 22.836 12.961 21.7578 13.5938C21.4062 13.8048 21.1719 14.1797 21.1719 14.6016V16.4062H20V12C20.4737 11.5263 21.1719 11.3877 21.1719 10.5469C21.1719 9.89055 20.6563 9.375 20 9.375V7.03125C21.9454 7.03125 23.5156 8.60148 23.5156 10.5469Z" fill="#3E454D"/>
<path d="M20 37.6562H23.5156V40H20V37.6562Z" fill="#FFBE40"/>
</g>
<defs>
<clipPath id="clip0_43_104">
<rect width="40" height="40" fill="white"/>
</clipPath>
</defs>
</svg>
