<svg width="40" height="40" viewBox="0 0 40 40" fill="none" xmlns="http://www.w3.org/2000/svg">
<g clip-path="url(#clip0_43_199)">
<path d="M20 40C31.0457 40 40 31.0457 40 20C40 8.9543 31.0457 0 20 0C8.9543 0 0 8.9543 0 20C0 31.0457 8.9543 40 20 40Z" fill="#FFCD00"/>
<path fill-rule="evenodd" clip-rule="evenodd" d="M20 40C17.3478 40 14.8043 38.9464 12.9289 37.0711C11.0536 35.1957 10 32.6522 10 30C10 27.3478 11.0536 24.8043 12.9289 22.9289C14.8043 21.0536 17.3478 20 20 20H40C40 25.3043 37.8929 30.3914 34.1421 34.1421C30.3914 37.8929 25.3043 40 20 40Z" fill="#FFB400"/>
<path fill-rule="evenodd" clip-rule="evenodd" d="M20 0C22.6522 0 25.1957 1.05357 27.0711 2.92893C28.9464 4.8043 30 7.34784 30 10C30 12.6522 28.9464 15.1957 27.0711 17.0711C25.1957 18.9464 22.6522 20 20 20H0C0 14.6957 2.10714 9.60859 5.85786 5.85786C9.60859 2.10714 14.6957 0 20 0Z" fill="#FFEB00"/>
<path fill-rule="evenodd" clip-rule="evenodd" d="M7.5 20.0012L32.5 20C32.502 21.7736 32.1256 23.5272 31.3959 25.1438C30.6663 26.7604 29.6001 28.2027 28.2687 29.3745H11.7307C11.5357 29.2026 11.3458 29.0241 11.1608 28.8392C10.0002 27.6786 9.07953 26.3007 8.45141 24.7843C7.82328 23.2679 7.49999 21.6426 7.5 20.0012Z" fill="#46321E"/>
<path fill-rule="evenodd" clip-rule="evenodd" d="M11.7307 29.3745C12.6471 28.0259 13.8798 26.9221 15.321 26.1595C16.7622 25.397 18.3682 24.9989 19.9988 25H20.0013C21.6317 24.9989 23.2377 25.397 24.6789 26.1594C26.1201 26.9219 27.3527 28.0256 28.2691 29.3741C25.9878 31.3924 23.0459 32.5045 20 32.5H19.9988C16.9541 32.5 14.014 31.3886 11.7307 29.3745Z" fill="#C8005A"/>
<path d="M34.5106 13.8387L32.5 20.0275L27.2356 16.2031H20.7281L22.7394 10.0138L20.7281 3.82562H27.2356L32.5 0L34.5106 6.18937L39.775 10.0138L34.5106 13.8387Z" fill="#FF961E"/>
<path d="M5.48935 13.8387L7.49998 20.0275L12.7644 16.2031H19.2725L17.2606 10.0138L19.2725 3.82562H12.7644L7.49998 0L5.48935 6.18937L0.224976 10.0138L5.48935 13.8387Z" fill="#FF961E"/>
</g>
<defs>
<clipPath id="clip0_43_199">
<rect width="40" height="40" fill="white"/>
</clipPath>
</defs>
</svg>
