<svg width="40" height="40" viewBox="0 0 40 40" fill="none" xmlns="http://www.w3.org/2000/svg">
<g clip-path="url(#clip0_43_250)">
<path d="M20.0071 0.0041506C12.0046 0.00298418 4.77209 4.77307 1.62233 12.1296L1.37305 12.2123L1.46969 12.5022C-2.67744 22.7306 2.25228 34.3842 12.4806 38.5314C14.8696 39.5 17.4233 39.9972 20.0012 39.9958C31.0445 39.9975 39.9983 31.0463 40 20.003C40.0017 8.95962 31.0505 0.00573361 20.0071 0.0041506ZM35.6916 30.0815L34.6648 29.0554V26.6653C34.6659 26.5621 34.6431 26.4601 34.5981 26.3673L31.9987 21.1757V18.6669C31.9987 18.4441 31.8874 18.236 31.7021 18.1124L29.7025 16.7793C29.5458 16.6747 29.352 16.6413 29.1693 16.6873L26.7204 17.2992L22.6073 15.5342L22.0414 11.5697L23.6097 10.0021H26.9764L28.1095 11.705C28.2118 11.8582 28.373 11.9622 28.5547 11.9923L32.5539 12.6588C32.661 12.6768 32.7708 12.6681 32.8738 12.6335L36.557 11.4058C39.6463 17.3341 39.3159 24.4644 35.6916 30.0815ZM32.9425 6.57212L31.8587 7.29463L28.8373 6.69009L26.8771 6.03756C26.7571 5.99682 26.6279 5.99165 26.5051 6.0229L24.027 6.6421L22.9406 6.28018L23.7457 4.66984H25.9999C26.1033 4.66993 26.2053 4.64602 26.2979 4.59986L28.604 3.44677C30.1922 4.27576 31.6532 5.32821 32.9425 6.57212ZM12.7007 2.82556L14.3004 3.89201C14.379 3.94433 14.4678 3.97932 14.561 3.99465L17.791 4.53321L17.4757 5.47634L15.7927 6.03823C15.642 6.08838 15.5141 6.19069 15.4321 6.32683L13.5178 9.51683L10.4432 11.3618L5.91077 12.009C5.58225 12.0554 5.33797 12.3364 5.33755 12.6682V14.6678C5.33755 14.8446 5.40787 15.014 5.53285 15.139L6.67061 16.2768V17.4219L3.89785 15.5729L2.89206 12.5555C4.80566 8.18311 8.31302 4.70384 12.7007 2.82556ZM10.8031 24.679L7.79038 24.0758L6.67061 21.8423V20.2759L9.15409 17.7924L10.0732 19.6314C10.1861 19.8573 10.4172 20.0001 10.6698 20H14.9582L16.7638 23.0094C16.8843 23.2099 17.1011 23.3325 17.3351 23.3326H19.188L18.7214 25.6701L16.198 28.1936C16.0727 28.3185 16.0022 28.488 16.002 28.6648V30.3312L13.6025 32.1308C13.4347 32.2567 13.3359 32.4542 13.3359 32.664V35.0715L12.5067 34.7969L11.3363 31.8695V25.3322C11.3364 25.0154 11.1134 24.7423 10.8031 24.679ZM8.7995 34.9253C2.51506 30.2105 -0.142638 22.0642 2.15222 14.5505L2.7061 16.2114C2.75276 16.352 2.84491 16.4731 2.96805 16.5554L6.29069 18.7702L5.53285 19.5287C5.40787 19.6537 5.33755 19.8232 5.33755 20V21.9996C5.33747 22.103 5.36138 22.2049 5.40754 22.2975L6.74059 24.9636C6.83291 25.1477 7.00512 25.2789 7.20716 25.3189L10.0066 25.8781V31.9975C10.0065 32.0821 10.0226 32.1661 10.0539 32.2448L11.387 35.5774C11.4599 35.7594 11.6094 35.9002 11.7955 35.962L13.7951 36.6285C13.8619 36.6512 13.9319 36.6628 14.0024 36.6632C14.3705 36.6632 14.6689 36.3647 14.6689 35.9966V32.9973L17.0684 31.1977C17.2362 31.0718 17.3351 30.8742 17.3351 30.6644V28.9408L19.8059 26.47C19.8988 26.3769 19.9621 26.2583 19.9878 26.1294L20.6544 22.7967C20.7265 22.4357 20.4924 22.0846 20.1314 22.0125C20.0885 22.0039 20.0449 21.9996 20.0012 21.9996H17.7123L15.9067 18.9902C15.7862 18.7897 15.5694 18.667 15.3355 18.6669H11.0817L9.9366 16.3694C9.8407 16.1776 9.6584 16.0436 9.4467 16.0095C9.23507 15.9729 9.01904 16.0427 8.86882 16.1961L8.00366 17.0579V16.0008C8.00366 15.824 7.93335 15.6546 7.80837 15.5296L6.67061 14.3918V13.2461L10.7644 12.6615C10.8523 12.6488 10.9369 12.6186 11.013 12.5729L14.3457 10.5733C14.4392 10.5171 14.5175 10.4388 14.5736 10.3453L16.4466 7.22398L18.2122 6.63477C18.4116 6.56937 18.568 6.41298 18.6334 6.21352L19.3 4.21394C19.4155 3.86443 19.2257 3.48742 18.8762 3.37195C18.844 3.36128 18.8109 3.35312 18.7774 3.34745L14.9196 2.70425L14.2417 2.25235C18.4361 0.887133 22.979 1.0561 27.0604 2.72892L25.8426 3.33679H23.3338C23.0799 3.33537 22.8474 3.47834 22.7339 3.70538L21.4009 6.37149C21.2367 6.70092 21.3705 7.10117 21.7 7.26539C21.7281 7.27938 21.757 7.29138 21.7868 7.3013L23.7864 7.96782C23.9064 8.00857 24.0355 8.01373 24.1583 7.98249L26.6364 7.36328L28.4521 7.96782C28.4781 7.97716 28.5048 7.98432 28.5321 7.98915L31.8647 8.65568C32.038 8.69101 32.2183 8.65551 32.3653 8.55703L33.8823 7.54525C34.6289 8.37682 35.2998 9.2733 35.8872 10.224L32.6079 11.3171L29.0573 10.7252L27.8842 8.96562C27.7612 8.78124 27.5546 8.67009 27.333 8.66901H23.3338C23.157 8.66901 22.9875 8.73933 22.8626 8.8643L20.863 10.8639C20.7145 11.0123 20.6446 11.222 20.6744 11.4298L21.3409 16.0955C21.3745 16.3262 21.5261 16.5225 21.7408 16.6134L26.4065 18.6129C26.5401 18.6708 26.6893 18.6828 26.8304 18.6469L29.2106 18.0517L30.6656 19.0235V21.333C30.6644 21.4362 30.6873 21.5382 30.7323 21.631L33.3317 26.8226V29.3314C33.3317 29.5082 33.402 29.6776 33.527 29.8026L34.9214 31.1977C28.7374 39.4403 17.0422 41.1093 8.7995 34.9253Z" fill="#018BAA"/>
</g>
<defs>
<clipPath id="clip0_43_250">
<rect width="40" height="40" fill="white"/>
</clipPath>
</defs>
</svg>
